<svg xmlns="http://www.w3.org/2000/svg" viewBox="0 0 112.35 96.36"><defs><style>.cls-1{fill:#8799c2;}.cls-2{fill:#cfe6cf;}.cls-3{fill:#b3c1b4;}.cls-4{fill:#b3b0a1;}.cls-5{fill:#bcbad1;}.cls-6{fill:#82827e;}.cls-7{fill:#c1b2b2;}.cls-8{font-size:60.24px;fill:#fff;font-family:Algerian;}</style></defs><title>Asset 1</title><g id="Layer_2" data-name="Layer 2"><g id="Layer_1-2" data-name="Layer 1"><path class="cls-1" d="M106.25,2.39c-1.5-1-4.07-2.28-8.44-2.38a28.78,28.78,0,0,0-4.09.21,43.24,43.24,0,0,0-6,1.14l-.56.14c-.75.2-1.58.43-2.47.7C61.58,9.15-6,38.77.43,69,4,85.77,28.92,96.5,48.12,96.36c13.54-.1,24.9-5.61,34.1-13.79a72.37,72.37,0,0,0,7.45-7.71c1.66-2,3.23-4,4.71-6.17a99,99,0,0,0,6.3-10.38q1.18-2.22,2.23-4.46a111.7,111.7,0,0,0,4.7-11.55c.17-.48.33-1,.48-1.43a98.41,98.41,0,0,0,2.74-10,57.32,57.32,0,0,0,1.51-13.08,30.35,30.35,0,0,0-1.06-8h0Z"/><path class="cls-2" d="M97.81,0a5.08,5.08,0,0,1-4.09.21A28.78,28.78,0,0,1,97.81,0Z"/><path class="cls-3" d="M84.85,2C83.43,3.74,79,11.11,81.61,13.42c1.38,1.24,4.24.58,5.91-.67,3.81-2.83,2-9.16.57-11A2.1,2.1,0,0,0,86.66.84C86.37.82,85.73.89,84.85,2Z"/><path class="cls-4" d="M96.49,1.89C95.07,3.65,90.66,11,93.25,13.33c1.38,1.23,4.25.57,5.91-.67,3.81-2.84,2-9.16.57-11a2.11,2.11,0,0,0-1.43-1C98,.73,97.37.8,96.49,1.89Z"/><path class="cls-5" d="M106.69,15.75c-1.42,1.77-5.84,9.13-3.25,11.44,1.39,1.24,4.25.58,5.92-.66,3.81-2.84,2-9.17.57-11a2.13,2.13,0,0,0-1.43-1C108.2,14.59,107.56,14.66,106.69,15.75Z"/><path class="cls-2" d="M96.49,15.85c-1.42,1.76-5.83,9.12-3.24,11.44,1.38,1.23,4.25.57,5.91-.67,3.81-2.84,2-9.17.57-11a2.14,2.14,0,0,0-1.43-1C98,14.69,97.37,14.76,96.49,15.85Z"/><path class="cls-6" d="M84.85,15.94C83.43,17.7,79,25.06,81.61,27.38c1.38,1.23,4.24.57,5.91-.67,3.81-2.84,2-9.16.57-11a2.14,2.14,0,0,0-1.43-1C86.37,14.78,85.73,14.85,84.85,15.94Z"/><path class="cls-7" d="M111.28,9.83h0a5.38,5.38,0,0,1-1.92,2.73c-1.67,1.24-4.53,1.9-5.91.67-2.36-2.11,1.09-8.41,2.8-10.85Z"/><path class="cls-3" d="M84.85,29.55C83.43,31.31,79,38.68,81.61,41c1.38,1.24,4.24.58,5.91-.67,3.81-2.83,2-9.16.57-11a2.1,2.1,0,0,0-1.43-.95C86.37,28.39,85.73,28.46,84.85,29.55Z"/><path class="cls-4" d="M96.49,29.46c-1.42,1.76-5.83,9.13-3.24,11.44,1.38,1.23,4.25.57,5.91-.67,3.81-2.84,2-9.16.57-11a2.11,2.11,0,0,0-1.43-1C98,28.3,97.37,28.37,96.49,29.46Z"/><path class="cls-5" d="M107.61,42.3a111.7,111.7,0,0,1-4.7,11.55c-1.27-2.86,2.49-9.08,3.78-10.68A3.94,3.94,0,0,1,107.61,42.3Z"/><path class="cls-2" d="M96.49,43.26C95.07,45,90.66,52.38,93.25,54.7c1.38,1.23,4.25.57,5.91-.67,3.81-2.84,2-9.16.57-11a2.11,2.11,0,0,0-1.43-1C98,42.1,97.37,42.17,96.49,43.26Z"/><path class="cls-6" d="M84.85,43.35c-1.42,1.76-5.83,9.13-3.24,11.44,1.38,1.23,4.24.57,5.91-.67,3.81-2.84,2-9.16.57-11a2.14,2.14,0,0,0-1.43-1C86.37,42.19,85.73,42.26,84.85,43.35Z"/><path class="cls-7" d="M110.83,30.88a6.92,6.92,0,0,0-.9-1.7,2.1,2.1,0,0,0-1.43-.95c-.29,0-.93.05-1.81,1.14-1.42,1.76-5.83,9.13-3.24,11.44,1.07,1,3,.77,4.64.06Z"/><path class="cls-3" d="M84.85,56.78C83.43,58.54,79,65.9,81.61,68.22c1.38,1.23,4.24.57,5.91-.67,3.81-2.84,2-9.16.57-11a2.14,2.14,0,0,0-1.43-1C86.37,55.62,85.73,55.69,84.85,56.78Z"/><path class="cls-4" d="M100.68,58.31a99,99,0,0,1-6.3,10.38,2.51,2.51,0,0,1-1.13-.56c-2.59-2.31,1.83-9.68,3.25-11.44.87-1.09,1.51-1.16,1.81-1.15a2.14,2.14,0,0,1,1.43,1A7,7,0,0,1,100.68,58.31Z"/><path class="cls-6" d="M89.67,74.86a72.37,72.37,0,0,1-7.45,7.71,2.44,2.44,0,0,1-.61-.39C79,79.86,83.43,72.5,84.85,70.74c.88-1.09,1.52-1.16,1.81-1.15a2.11,2.11,0,0,1,1.43,1A10,10,0,0,1,89.67,74.86Z"/><text class="cls-8" transform="translate(0 78.11) scale(1.03 1)">.cv</text></g></g></svg>